<svg xmlns="http://www.w3.org/2000/svg" viewBox="0 0 417.77 180.95"><defs><style>.cls-1{fill:#9eaeaf;}</style></defs><g id="_2D_Desktop" data-name="2D Desktop"><path class="cls-1" d="M217,163.59a65.72,65.72,0,0,0-2.83,6.79,48.36,48.36,0,0,0-2,10.23h5.32a42.13,42.13,0,0,1,1.72-8.57,60.26,60.26,0,0,1,2.6-6.23,56.7,56.7,0,0,0,3.12-7.71c0-.11.05-.23.08-.35a12.62,12.62,0,0,0,5.8-2.87,30,30,0,0,0,10.06-15.4,2,2,0,1,0-3.83-1,26,26,0,0,1-8.73,13.35,12.4,12.4,0,0,1-2.38,1.55c1.08-7.55-.27-15.19-1.63-22.62-1.5-8.22-2.92-16-1.21-23.48a2.65,2.65,0,0,0-5.17-1.17c-1.56,6.86-.84,13.81.29,20.62a36.55,36.55,0,0,1-9.34-11.26,2,2,0,1,0-3.51,1.87,40.56,40.56,0,0,0,13.84,15c1,5.71,2,11.2,1.82,16.51a56.49,56.49,0,0,1-11.57-5.15,2,2,0,1,0-2,3.42,60.17,60.17,0,0,0,13.23,5.79,28.6,28.6,0,0,1-.81,3.71A53.54,53.54,0,0,1,217,163.59Z"/><path class="cls-1" d="M289.7,158.57a42.84,42.84,0,0,1-2.88,5.66,38,38,0,0,1-7,7.56q-5.28,4.62-11,8.82h6.52c2.4-1.89,4.76-3.83,7.05-5.84a41.37,41.37,0,0,0,7.76-8.39,45.66,45.66,0,0,0,3.15-6.19,41.29,41.29,0,0,1,3-5.86c2.9-4.39,7.44-7.47,12.25-10.73,6-4.09,12.27-8.32,14.95-15.4a2,2,0,1,0-3.71-1.4c-2.24,5.9-7.7,9.6-13.47,13.52-2,1.35-4,2.72-5.93,4.21a13.13,13.13,0,0,1,2.08-3,2,2,0,1,0-2.89-2.73,17.46,17.46,0,0,0-4.58,9.8,2,2,0,0,0,.09.82,25.13,25.13,0,0,0-2.1,2.71A44,44,0,0,0,289.7,158.57Z"/><path class="cls-1" d="M164.86,170.48a2,2,0,0,0-4-.27,17.58,17.58,0,0,0,2.66,10.4h5A13.7,13.7,0,0,1,164.86,170.48Z"/><path class="cls-1" d="M173.26,152.61a2.65,2.65,0,0,0-3.15,2c-1.23,5.76-1.14,11.62-1,17.28,0,3,.06,5.86-.08,8.69h5.33c.09-2,.1-4,.08-6l5.61-7c1.06-1.34,2.52-3.16,2.79-5.47a2,2,0,0,0-4-.46,7.67,7.67,0,0,1-1.95,3.45l-2.58,3.24a57.83,57.83,0,0,1,1-12.56A2.64,2.64,0,0,0,173.26,152.61Z"/><path class="cls-1" d="M124.26,174.61a19.07,19.07,0,0,1-1.6-3.7c-.67-2.55-.21-5.45.24-8.25a2.65,2.65,0,0,0-5.23-.84c-.51,3.2-1.09,6.82-.12,10.45a22.79,22.79,0,0,0,2,4.81c.61,1.16,1.31,2.35,2.08,3.53h6.95A19.65,19.65,0,0,1,124.26,174.61Z"/><path class="cls-1" d="M125.6,133a2.65,2.65,0,0,0-5.26.64,15.92,15.92,0,0,0,11.34,13.12,34.64,34.64,0,0,0,2.56,10.79,9.74,9.74,0,0,0,3.88,4.91,53,53,0,0,0-4.75,12.3,42.94,42.94,0,0,0-1,5.87h5.31a39.65,39.65,0,0,1,.79-4.63c1.92-8,6.31-15.92,13-23.62.9-1,1.82-2,2.74-3,3.28-3.58,6.68-7.29,9-11.84a53.18,53.18,0,0,0,3.22-8.81l4.74-15.81a2.65,2.65,0,0,0-5.08-1.52l-4.73,15.81a49.38,49.38,0,0,1-2.88,8,29.66,29.66,0,0,1-2.71,4.25,26.86,26.86,0,0,0-8.29-18.49l-.66-.6a9.51,9.51,0,0,1-1.89-2.06c-.67-1.19-.62-3-.58-4.6l.17-6.18a15.5,15.5,0,0,0-.51-5.3,7.07,7.07,0,0,0-4.88-4.82,2.65,2.65,0,1,0-1.21,5.15,2,2,0,0,1,1,1.31,10.9,10.9,0,0,1,.25,3.52l-.17,6.18c-.05,2.06-.13,4.88,1.26,7.35a13.66,13.66,0,0,0,3,3.37l.59.54A21.75,21.75,0,0,1,150,145a2.78,2.78,0,0,0,0,1.15c-.81.89-1.63,1.78-2.42,2.69a76,76,0,0,0-6.8,9c-.32-.15-.94-.67-1.66-2.39a29.38,29.38,0,0,1-2.24-9.81c0-.94,0-1.88-.06-2.83,0-1.44,0-2.94-.16-4.46-.67-6.73-4-12.7-6.93-18a2.65,2.65,0,1,0-4.63,2.57c2.68,4.83,5.72,10.3,6.28,15.94.07.7.11,1.41.12,2.14A10.71,10.71,0,0,1,125.6,133Z"/><path class="cls-1" d="M354.74,133a39.8,39.8,0,0,1-4.71,9,34.94,34.94,0,0,1-6.11,5.78c-4.45,3.52-9.2,6.88-13.8,10.12-5.91,4.18-12,8.47-17.63,13.25a2.57,2.57,0,0,0,.08-.38c.08-4.78,4.7-8.35,6.68-9.66,1.54-1,3.16-1.89,4.87-2.82a47.06,47.06,0,0,0,7.37-4.61,2,2,0,1,0-2.51-3.08,43,43,0,0,1-6.75,4.2c-1.72.93-3.49,1.88-5.17,3-.55.36-1.17.83-1.81,1.33,1.53-4.24,3.21-8.51,6-11.95s6.7-6,10.78-8.63c1.64-1.05,3.27-2.1,4.84-3.22,5.24-3.74,11.46-9.89,11.4-17.94a2,2,0,0,0-2-2h0a2,2,0,0,0-2,2c.05,6.34-5.27,11.48-9.74,14.67-1.52,1.09-3.1,2.11-4.68,3.12-1,.66-2,1.31-3,2a25.33,25.33,0,0,1,3.45-5.8,2,2,0,1,0-3.09-2.49,29.27,29.27,0,0,0-5.54,11.11,1.94,1.94,0,0,0,.07,1.07,28.75,28.75,0,0,0-3.57,3.58c-3.5,4.31-5.43,9.67-7.14,14.4-2,5.59-4.08,11.36-5,17.43a1.94,1.94,0,0,0,0,.54c-1.15,1.15-2.23,2.35-3.33,3.54H310c.16-.15.29-.32.44-.46,6.89-6.68,14.95-12.38,22.74-17.89,4.65-3.29,9.46-6.69,14-10.3a54.79,54.79,0,0,0,4.43-3.84s.05,0,.07,0l6.12-3.22a71.55,71.55,0,0,1,6.54-3.17c1.25-.5,2.55-1,3.85-1.4,4.36-1.5,8.88-3.05,12-6.75a2,2,0,1,0-3-2.59c-2.46,2.89-6.28,4.2-10.32,5.59-1.36.47-2.72.94-4,1.47a64.17,64.17,0,0,0-5.91,2.83c1-1.92,1.84-3.89,2.65-5.83l.44-1.05c2.06-4.87,4.37-9.65,6.84-14.34,3.3-2.06,6.66-4.07,10.05-6l.35-.19a29.8,29.8,0,0,0,6.52-4.43,11.28,11.28,0,0,0,3.76-8.39,2,2,0,1,0-4,.16,7.38,7.38,0,0,1-2.56,5.37,26.56,26.56,0,0,1-5.69,3.82l-.35.19c-1.41.79-2.82,1.61-4.22,2.43,2-3.47,4.13-6.91,6.38-10.24a2.64,2.64,0,1,0-4.38-3,190.6,190.6,0,0,0-17.62,32.48Z"/><path class="cls-1" d="M16.73,156.47a148.09,148.09,0,0,0,9.15,11.87c1.12,1.27,2.29,2.48,3.49,3.66l.08.08a75.83,75.83,0,0,0,10.48,8.53H50.28a71.37,71.37,0,0,1-16-11.29,62.36,62.36,0,0,0,2.95-21.52,2.65,2.65,0,1,0-5.29.23A56.78,56.78,0,0,1,30,165a1.59,1.59,0,0,0-.13-.13c-1.62-1.85-3.17-3.8-4.67-5.78a39.65,39.65,0,0,0,.34-33.44,2.65,2.65,0,1,0-4.81,2.21,34.35,34.35,0,0,1,.83,26.26l-.51-.71L10.14,138.24c-1.58-2.2-3.22-4.72-2.72-6.79a2.65,2.65,0,0,0-5.15-1.26c-1.12,4.61,1.93,8.86,3.58,11.14Z"/><path class="cls-1" d="M47.55,146a2.48,2.48,0,0,0,.62.24c.13.56.28,1.12.46,1.68a30.71,30.71,0,0,0,4,7.25l6.89,10.14A30.48,30.48,0,0,0,64.11,171a30.71,30.71,0,0,0,6.34,4.15l.78.42a77.25,77.25,0,0,1,8.12,5.06H88a69.28,69.28,0,0,0,3-42.06,2.65,2.65,0,0,0-5.14,1.27,63.81,63.81,0,0,1,1.52,21c-.08,0-.14-.05-.22-.06a9,9,0,0,1-8.07-7,2.64,2.64,0,1,0-5.19,1A14.31,14.31,0,0,0,86.59,166a63.68,63.68,0,0,1-3,11.1,79,79,0,0,0-9.82-6.24l-.8-.43a26,26,0,0,1-5.29-3.41,26.2,26.2,0,0,1-3.77-4.74l-3.42-5a49.85,49.85,0,0,0,4.08-7.62,11.11,11.11,0,0,0,2,.21,11.41,11.41,0,0,0,10.11-6.13,2.65,2.65,0,1,0-4.76-2.33,6.08,6.08,0,0,1-5.49,3.14,50.07,50.07,0,0,0,2.08-18.62,2.61,2.61,0,0,0-2.85-2.43,2.65,2.65,0,0,0-2.43,2.85,44.84,44.84,0,0,1-6,26.11l-.2-.3a25.81,25.81,0,0,1-3.36-6c-1.26-3.7-.62-8.1-.06-12,.79-5.41,1.61-11,3.73-16,.7-1.62,1.53-3.19,2.43-4.89L78.54,78.13c10.76-6.57,19.32-13.84,26-22.18a29.7,29.7,0,0,0,3.82-5.74c1.9-3.94,2.27-8.28,2.59-12.12a2.64,2.64,0,0,0-5.27-.45c-.31,3.55-.62,7.22-2.09,10.28a24.47,24.47,0,0,1-3.17,4.71c-1.16,1.44-2.39,2.83-3.67,4.2A81.5,81.5,0,0,1,98.4,45.94a2,2,0,1,0-3.88-.85,86.35,86.35,0,0,0-2,15.53,1.68,1.68,0,0,0,.07.39A102.12,102.12,0,0,1,76.2,73.37a39.43,39.43,0,0,1,2.2-21.22,2.65,2.65,0,1,0-4.91-2,44.71,44.71,0,0,0-1.64,28,2.31,2.31,0,0,0,.32.6l-5.6,10.51A27.74,27.74,0,0,0,56.45,74.57a2.65,2.65,0,1,0-3.15,4.26,22.34,22.34,0,0,1,9,16.46,2.57,2.57,0,0,0,.46,1.27l-3.57,6.69a48.13,48.13,0,0,1-8.77-7.66c-2.77-3.1-3.93-5.67-3.55-7.87a2.65,2.65,0,1,0-5.21-.92c-.69,3.9.89,7.93,4.81,12.32A53.09,53.09,0,0,0,56.63,108l-1.58,3c-.89,1.68-1.82,3.42-2.6,5.25l-.11.29A20,20,0,0,0,40,106.62a2.65,2.65,0,1,0-1.3,5.13,14.64,14.64,0,0,1,10.72,12.67,2.71,2.71,0,0,0,.28,1c-.55,2.69-.95,5.39-1.33,8a59.18,59.18,0,0,0-.69,6.37,24.65,24.65,0,0,1-8.6-10.61,2.64,2.64,0,0,0-4.88,2A29.94,29.94,0,0,0,47.55,146Z"/><path class="cls-1" d="M8,180.61h9.53a40.18,40.18,0,0,0,.85-14.69,2.65,2.65,0,0,0-5.25.7,34.85,34.85,0,0,1-.38,11.25,42,42,0,0,1-7.75-10,2.65,2.65,0,1,0-4.66,2.52A46.42,46.42,0,0,0,8,180.61Z"/><path class="cls-1" d="M108.89,77.51a53.71,53.71,0,0,0-.83,11.69,19.88,19.88,0,0,0,4.35,11.59c-.24.54-.5,1.08-.72,1.64-1.8,4.57-2.44,9.38-3.07,14-.24,1.83-.49,3.67-.81,5.49-.19,1.12-.36,2.3-.54,3.5-.55,3.81-1.16,8-2.83,10.94A132.16,132.16,0,0,0,98,119.8c-.71-1.56-1.46-3.12-2.21-4.69-1.56-3.27-3.14-6.59-4.52-9.92a34.79,34.79,0,0,0,8.28-17.41,2.65,2.65,0,0,0-5.23-.84,29.6,29.6,0,0,1-5.18,12.44c-1.66-5.27-2.5-10.58-1.64-15.9a2.65,2.65,0,0,0-5.23-.84c-2,12.28,3.45,23.68,8.72,34.71a23.22,23.22,0,0,1-9-6c-.87-.94-.89-1.27-.89-1.31a2.65,2.65,0,0,0-2.63-2.66h0A2.64,2.64,0,0,0,75.8,110a7.31,7.31,0,0,0,2.29,4.92,28.51,28.51,0,0,0,15.67,8.7l.15,0c5.52,12.3,8.58,23.42,9.3,33.94a61.71,61.71,0,0,1-2.68,23.05h5.55a67.7,67.7,0,0,0,2.42-23.42,87.46,87.46,0,0,0-2.34-14.63c4.51-3.95,5.51-10.5,6.35-16.35.17-1.15.33-2.28.52-3.35.33-1.88.59-3.79.84-5.7.28-2.09.57-4.13.94-6.12h0a43.77,43.77,0,0,1,12.27-9.88,2.64,2.64,0,1,0-2.52-4.65,49.17,49.17,0,0,0-6.06,3.94c1-1.72,2-3.42,3.11-5.18l1.14-1.8q2.77-4.47,5.12-9c6.23-1.13,10.87-6,14.26-9.54a2.65,2.65,0,1,0-3.84-3.65,37.85,37.85,0,0,1-7.13,6.3A108.87,108.87,0,0,0,138.21,56a28.49,28.49,0,0,0,7.7-2.57c.93-.42,1.87-.84,2.81-1.21A27.92,27.92,0,0,1,163,50.63a2.64,2.64,0,1,0,.78-5.23,33.14,33.14,0,0,0-17,1.92c-1,.4-2,.86-3.06,1.31a34.45,34.45,0,0,1-4.49,1.77c.41-2.72.68-5.43.84-8.12a18.63,18.63,0,0,0,4.19-1.82,53.1,53.1,0,0,0,17.09-15.23,2.65,2.65,0,0,0-4.3-3.09,47.71,47.71,0,0,1-15.37,13.69c-.48.27-1,.53-1.47.76a76.63,76.63,0,0,0-1.05-11.9,2.65,2.65,0,0,0-5.22.89,79.24,79.24,0,0,1-1.27,31,22.42,22.42,0,0,1-6.21-22.22,2.65,2.65,0,1,0-5.08-1.49,27.76,27.76,0,0,0,9.82,29.36,116.26,116.26,0,0,1-13,28.46l-1.11,1.77c-.65,1-1.3,2.07-1.94,3.13a16.63,16.63,0,0,1-1.86-6.75,49.66,49.66,0,0,1,.79-10.55,2.65,2.65,0,1,0-5.24-.76Z"/><path class="cls-1" d="M233,164.25a2.64,2.64,0,0,0-3,2.22A32.39,32.39,0,0,1,224,180.61h6.29a37.13,37.13,0,0,0,4.87-13.34A2.65,2.65,0,0,0,233,164.25Z"/><path class="cls-1" d="M417.62,143.71a2,2,0,0,0-2.58-1.09l-7.65,3.12a45.89,45.89,0,0,1-5.41,1.91c3.11-3.32,6-6.61,8.58-9.6a2.65,2.65,0,1,0-4-3.47c-4.15,4.78-8.21,9.32-12.31,13.43a1.91,1.91,0,0,0-1.13,1.13,81.34,81.34,0,0,1-14.7,11.74c2.85-5.09,4.45-11.14,5.87-17.42a2,2,0,1,0-3.87-.88c-2,8.88-4.35,17.25-10.26,22.34-.53.21-1.06.42-1.6.6-1.41.47-2.89.85-4.4,1.2a49.56,49.56,0,0,0,4.38-7.66,2,2,0,0,0-3.61-1.65,45.64,45.64,0,0,1-5.67,9.25,9.83,9.83,0,0,1-1.13,1.22c-1.35.22-2.69.42-4,.62-7.27,1.09-14.72,2.21-20.92,5.66.66-.91,1.43-1.74,2.15-2.6a36.24,36.24,0,0,1-7.6,3.74,43.55,43.55,0,0,0-2.65,5.18,1.84,1.84,0,0,0-.07.47h7.63c5.68-4.7,13.74-5.94,22.24-7.21,3.28-.49,6.63-1,9.89-1.74a1.88,1.88,0,0,0,1,.38,71.06,71.06,0,0,1,13.37,1.33c1.49.34,2.95.77,4.41,1.21a60.11,60.11,0,0,0,5.91,1.54,13.51,13.51,0,0,0,1.58,4.49h4.68a11.89,11.89,0,0,1-2.16-4.07c.2,0,.39,0,.58,0a24.24,24.24,0,0,0,13-3.76A2,2,0,0,0,405,169.8a20.44,20.44,0,0,1-13.13,3,42.88,42.88,0,0,1-7.16-1.7c-1.54-.46-3.08-.92-4.65-1.28a48.9,48.9,0,0,0-5.74-.9c8.78-3.85,16.53-10.11,23.25-16.74l.45,0c4,0,7.86-1.58,10.87-2.8l7.65-3.12A2,2,0,0,0,417.62,143.71Z"/><path class="cls-1" d="M247.17,63.27a11,11,0,0,1,.89,7.54,1.92,1.92,0,0,0,.34,1.6c-.88,1.26-1.76,2.51-2.58,3.81A40.27,40.27,0,0,0,241,87.13a53,53,0,0,0-4.94-6.79c-4-4.58-10.45-10.31-18.93-11.57a2.65,2.65,0,1,0-.77,5.24c6.86,1,12.32,5.89,15.69,9.79a47.57,47.57,0,0,1,6.46,9.67,2.65,2.65,0,0,0,1.13,1.14,57.86,57.86,0,0,0,.06,10.62,10.82,10.82,0,0,1-6.91-7.32,2,2,0,0,0-3.84,1,14.86,14.86,0,0,0,11.13,10.53h.11c.15,1.07.31,2.14.49,3.18a78.26,78.26,0,0,0,6.2,19.1c.81,1.82,1.47,3.84,2.17,6,1.68,5.15,3.42,10.47,7.75,14-1.16,4-2.28,8.2-3.2,12.47a11.62,11.62,0,0,1-4.41-8.36,2,2,0,0,0-4,.21,15.46,15.46,0,0,0,7.48,12.34l.08,0a107.21,107.21,0,0,0-1.33,12.21h5.27c.06-1.1.1-2.21.2-3.31a26.42,26.42,0,0,0,9.21-8A2,2,0,0,0,262.9,167a22.65,22.65,0,0,1-5.4,5.3c.22-1.55.48-3.1.77-4.63.39-2,.86-4.06,1.35-6.07a27.22,27.22,0,0,0,2.65-1,126.08,126.08,0,0,0,29.62-18,2,2,0,0,0-2.5-3.09,122.78,122.78,0,0,1-12.74,9l.18-2.62a2,2,0,1,0-4-.27l-.31,4.46a2.41,2.41,0,0,0,.1.76,124.29,124.29,0,0,1-11.81,6c.6-2.18,1.21-4.34,1.83-6.44,1.49-5.09,3.33-10.62,5.51-16.38h.12a65,65,0,0,0,22.28-10.54,2.52,2.52,0,0,0,.62.11h.24a90.39,90.39,0,0,0,49.95-20.91c1-.84,1.94-1.72,2.9-2.6a24.75,24.75,0,0,0,5.67.67,25.18,25.18,0,0,0,13.1-3.67A2,2,0,0,0,361,93.72a21.14,21.14,0,0,1-13,3l1.64-1.56c5.82-5.59,11.31-10.87,18.1-14.27a2.65,2.65,0,1,0-2.38-4.74c-6.28,3.16-11.54,7.74-16.52,12.45A15.44,15.44,0,0,1,346.29,78,2.65,2.65,0,0,0,341,77.3a20.81,20.81,0,0,0,3.92,15c-2.27,2.19-4.6,4.4-7,6.42-1.87,1.59-3.84,3.08-5.86,4.5L333.2,99a2,2,0,0,0-3.85-1l-2.19,8.4a85.33,85.33,0,0,1-28.57,10.84,45.4,45.4,0,0,0,9.15-10,42.4,42.4,0,0,0,5.15-13.88c.08-.05.17-.08.24-.13A175.47,175.47,0,0,0,332.24,76,27.81,27.81,0,0,0,338,68.09,2.65,2.65,0,1,0,333.14,66a23,23,0,0,1-4.74,6.34,168.72,168.72,0,0,1-13.92,13.07,46.38,46.38,0,0,1,4-12.76,51.82,51.82,0,0,1,3.48-5.5,60.65,60.65,0,0,0,3.7-5.85c1.7-3.18,4.16-9.4,1.49-15.24a2.65,2.65,0,0,0-4.82,2.2c1.66,3.63-.05,8-1.1,10.08a18,18,0,0,0-3.42-5A2,2,0,0,0,315,56.1a14,14,0,0,1,3.57,6.63c-.31.46-.61.92-.94,1.39a60.47,60.47,0,0,0-3.8,6c-2.84,5.41-4,11.38-5.07,17.16-1.19,6.27-2.31,12.19-5.45,17.18a31.71,31.71,0,0,1-4.74,5.66,24.65,24.65,0,0,1,4.4-8.12,2,2,0,0,0-3.07-2.52,28.7,28.7,0,0,0-6.28,15c-7.91,6.54-15.46,11-22.93,13.37,1.73-4.15,3.62-8.38,5.76-12.63l11.06-6.6a2,2,0,1,0-2-3.41L280,108.51c7.66-13.78,17.65-27.4,30.68-38.63a2.65,2.65,0,0,0-3.46-4,128,128,0,0,0-9.27,8.88,40.16,40.16,0,0,0-1.25-7.39,2.37,2.37,0,0,0,.4-.65,35.16,35.16,0,0,1,1.85-3.42c.51-.85,1-1.69,1.46-2.57,3.83-7.37,4-15.78,4.16-23.2A2.66,2.66,0,0,0,302,34.81a2.7,2.7,0,0,0-2.71,2.6c-.14,6.84-.3,14.6-3.55,20.87-.41.78-.87,1.54-1.32,2.31a2.39,2.39,0,0,1-.13.21c-1.75-3.46-4.69-7.54-9.35-9.78a2.65,2.65,0,1,0-2.3,4.77c3.87,1.86,6.21,5.69,7.48,8.57a34.43,34.43,0,0,1,2.66,15.5,2.11,2.11,0,0,0,.09.56c-.26.31-.5.62-.75.93a45.36,45.36,0,0,0-9.65-12.2,2.65,2.65,0,0,0-3.51,4,40.17,40.17,0,0,1,9.56,12.71,156.13,156.13,0,0,0-9.35,13.67l-2.32-4.12c-1.88-3.35-3.63-6.87-2.65-9.79a2.65,2.65,0,0,0-5-1.68c-1.66,5,.71,9.87,3.06,14.06l3.72,6.62a1.67,1.67,0,0,0,.12.16c-1.14,2-2.23,4-3.27,6a43.83,43.83,0,0,1-12.55-18.15,2.65,2.65,0,1,0-5,1.8,48.52,48.52,0,0,0,15.09,21.23,217.56,217.56,0,0,0-11.81,30.26c-2-2.57-3.22-6.12-4.44-9.85a67.22,67.22,0,0,0-2.37-6.5,73.46,73.46,0,0,1-5.81-17.81c-2.44-14.45-1.16-23.93,4.39-32.72.16-.24.33-.47.48-.71a28,28,0,0,1,12-5.7,2,2,0,1,0-.78-3.9A32.54,32.54,0,0,0,256,70.6c.54-.85,1.08-1.7,1.56-2.6a34.92,34.92,0,0,0,3.69-11.45c7.58-1.5,13.42-7,19.18-13.08,1.82-1.93,4.88-5.15,4.69-9.33a2.69,2.69,0,0,0-2.76-2.53,2.65,2.65,0,0,0-2.53,2.76c.08,1.79-1.56,3.67-3.24,5.45-4.75,5-9.5,9.6-15,11.23,0-.29,0-.59,0-.89,0-.67-.1-1.33-.17-2a2.37,2.37,0,0,0,.3-.69A45.83,45.83,0,0,1,274,25.91a2.65,2.65,0,0,0-3.71-3.78,50.4,50.4,0,0,0-10.76,15.53c-.29-1.32-.58-2.63-.83-3.95a68.93,68.93,0,0,1-.13-24.35,2.64,2.64,0,0,0-2.15-3.06,2.67,2.67,0,0,0-3.07,2.15,74.09,74.09,0,0,0,.15,26.23c.31,1.69.68,3.38,1.06,5.06a62.93,62.93,0,0,1,1.73,10.65,29.72,29.72,0,0,1-3.42,15.13c-.18.35-.41.68-.61,1a15,15,0,0,0-1.51-5.08,2,2,0,0,0-3.54,1.81Z"/><path class="cls-1" d="M164.81,76.43A2,2,0,0,0,163.47,74,2,2,0,0,0,161,75.3a21.81,21.81,0,0,0,.2,12.87l-.75-.42a44.83,44.83,0,0,1-4.35-8,14.4,14.4,0,0,1-.77-8.61,2,2,0,1,0-3.84-1,18.12,18.12,0,0,0,.9,11.06A29.78,29.78,0,0,0,154,84.72a27.09,27.09,0,0,0-11.63-2A2.65,2.65,0,0,0,140,85.52,2.68,2.68,0,0,0,142.78,88c5.91-.45,11.68,2.39,16.54,5.21,1.85,1.07,3.67,2.22,5.48,3.41a2,2,0,0,0,1.8,1.24h0a114.14,114.14,0,0,1,24.6,22.89,2.38,2.38,0,0,0,.4.31c.29.93.59,1.86.84,2.81a33,33,0,0,1,1,7c-4.34-3.15-9.13-4.77-13.7-4.47a2.64,2.64,0,1,0,.31,5.28c4.74-.26,9.91,2.28,14.23,7a2.85,2.85,0,0,0,.65.46c5.35,4.93,7.07,12.9,7.66,20.87a21.48,21.48,0,0,1-5.91-6.68,2,2,0,1,0-3.47,1.93,25.39,25.39,0,0,0,9.63,9.61h0a99.5,99.5,0,0,0,1.39,15.75h5.45c-1.14-5-1.36-10.51-1.54-15.93l0-.44c-.34-10.36-1.76-21.81-9.44-29a37.82,37.82,0,0,0-1.14-12.79c-.32-1.23-.71-2.45-1.1-3.66-.5-1.59-1-3.08-1.31-4.6-1-4.58-.63-9.34-.25-14.38.09-1.06.17-2.12.23-3.18A125,125,0,0,0,194.63,75a33.89,33.89,0,0,0,23-13.4,40.13,40.13,0,0,0,7.34-17.69l4.69-1.76c4.76-1.78,10.15-3.81,15.24-3a2.65,2.65,0,1,0,.83-5.23c-4.57-.73-9.1.27-13.18,1.59,2.65-4.6,3.66-10,4.28-15.31.07-.6.13-1.21.19-1.82a15.12,15.12,0,0,1,7.66-7.63,2,2,0,1,0-1.58-3.64,18.77,18.77,0,0,0-5.9,4.11A21,21,0,0,0,234.1.9a2,2,0,1,0-3.33,2.17c2.61,4,2.77,9.16,2.31,14.32-.18.46-.37.93-.52,1.41a2,2,0,0,0,.19,1.58C232,26.1,230.84,31.88,227.3,36a2,2,0,0,0-.47,1.45l-1.31.49c0-1.09,0-2.18,0-3.28-.11-2.86-.48-5.72-.84-8.48-.73-5.75-1.43-11.17,0-16.25a2.65,2.65,0,0,0-5.09-1.48c-1.79,6.14-1,12.37-.21,18.4.34,2.66.69,5.4.8,8a36.58,36.58,0,0,1-6.88,23.46A28.46,28.46,0,0,1,194,69.7c-.49-3.21-1.09-6.41-1.83-9.59-.11-.45-.23-.9-.34-1.36a17.9,17.9,0,0,0,14-8.25,2,2,0,0,0-3.38-2.08,13.8,13.8,0,0,1-11.56,6.4,86.46,86.46,0,0,1-2.32-11.5,18.3,18.3,0,0,0,6.13-3.57c3-2.39,6.44-5.1,8.49-8.92A2,2,0,1,0,199.6,29c-1.65,3.09-4.6,5.42-7.45,7.68a18.14,18.14,0,0,1-3.93,2.58,63.47,63.47,0,0,1,.71-10,1.84,1.84,0,0,0,.68-.17,31.41,31.41,0,0,0,12.8-13.4,2,2,0,1,0-3.56-1.76,27.36,27.36,0,0,1-9.11,10.4c.41-2.23.87-4.44,1.32-6.64a2.64,2.64,0,1,0-5.18-1.07c-.77,3.71-1.54,7.47-2.1,11.29a30.91,30.91,0,0,1-7-9.25,2,2,0,1,0-3.57,1.74,34.86,34.86,0,0,0,9.94,12.22,56.62,56.62,0,0,0-.07,10.5,90.56,90.56,0,0,0,2.7,13.63c.39,1.53.78,3.06,1.14,4.6.46,2,.85,4,1.21,6a40.06,40.06,0,0,0-2.78-3.37A24.66,24.66,0,0,0,174,56.73a2,2,0,0,0-2.43,1.4,2,2,0,0,0,1.4,2.44,20.68,20.68,0,0,1,9.49,6.08,56.48,56.48,0,0,1,7,9.8,121.17,121.17,0,0,1,.4,19.89c-.07,1-.15,2.07-.23,3.11a78.89,78.89,0,0,0-.3,11,116.75,116.75,0,0,0-9.11-8.83,51,51,0,0,1,.54-13.9,2,2,0,0,0-1.6-2.31,2,2,0,0,0-2.31,1.6A54.89,54.89,0,0,0,176,98.16q-4.26-3.36-8.83-6.33c-.22-.45-.44-.9-.67-1.34-.34-.67-.69-1.34-1-2A17.76,17.76,0,0,1,164.81,76.43Z"/></g></svg>