<svg xmlns="http://www.w3.org/2000/svg" xmlns:xlink="http://www.w3.org/1999/xlink" viewBox="0 0 111.2 112.48"><defs><style>.cls-1{fill:#cfd5ea;}.cls-2{fill:#e2e6f3;}.cls-3{fill:url(#linear-gradient);}.cls-4{fill:#f0594f;}.cls-5{fill:#7dd4f1;}.cls-6{fill:#fff;}</style><linearGradient id="linear-gradient" x1="67.85" y1="10.94" x2="67.85" y2="122.59" gradientUnits="userSpaceOnUse"><stop offset="0" stop-color="#feeed6"/><stop offset="1" stop-color="#f05951"/></linearGradient></defs><g id="Layer_2" data-name="Layer 2"><g id="Layer_1-2" data-name="Layer 1"><path class="cls-1" d="M107.39,94.48a2.1,2.1,0,0,1-1.28.16c-6.3,0-12.59,0-18.88-.07-1.15,0-1.39.36-1.38,1.43.06,4.13,0,8.27.05,12.4a3.74,3.74,0,0,1-4,4.07c-4.65-.14-9.29,0-13.94-.06l-1.42,0q-31.18,0-62.35,0A3.76,3.76,0,0,1,0,108.33C.07,82.57,0,56.82,0,31.06c0-.4,0-.8,0-1.21H25.94c2.66,0,4-1.32,4-4q0-12.93,0-25.87H83.5c1.9,1,2.4,2.59,2.4,4.62,0,11.68,0,23.37,0,35.06l-3.17,0-14.81.05v-.09c-.48,0-1,0-1.43,0l-21,0c-5.74,0-11.48,0-17.22,0a4,4,0,0,0-3.64,3,14.82,14.82,0,0,0-.19,4c0,4,0,7.89.06,11.84v16.9c0,.32-.07.65-.07,1q0,6.67,0,13.35a4.35,4.35,0,0,0,4,4.65,2,2,0,0,0,1.17.13c4,0,8,0,12,0a22.64,22.64,0,0,0,3.59-.09l.31-.11,21,0c.47,0,.94,0,1.41.07a.14.14,0,0,1,0-.11q11.14.13,22.29,0c.44,0,.87,0,1.31,0Z"/><path class="cls-2" d="M.07,29.86a1.92,1.92,0,0,1,0-.22c0-5.07-.4-4.07,3-7.46L23.34,1.85A9.17,9.17,0,0,1,25.74,0h4.18q0,12.95,0,25.88c0,2.67-1.31,4-4,4Z"/><path class="cls-3" d="M111.18,58.63q0,8.46,0,16.92a19.68,19.68,0,0,0-10.73,3c-6,3.59-10,8.57-10.23,15.9q-11.14.16-22.29,0a.14.14,0,0,0,0,.11c-.47,0-.94-.07-1.41-.07l-21,0A13.84,13.84,0,0,0,44,87.67c-4.06-7.9-10.63-11.84-19.46-12.13V58.64A23.49,23.49,0,0,0,27,58.57a22.06,22.06,0,0,0,13.77-7.21,17,17,0,0,0,4.7-11.6l21,0c.48,0,1,0,1.43,0v.09l14.81-.05,3.17,0,4.24.09c.1.87.15,1.74.3,2.6a18.29,18.29,0,0,0,6.85,11.25A20.91,20.91,0,0,0,111.18,58.63Z"/><path class="cls-4" d="M45.51,39.77a17,17,0,0,1-4.7,11.59A22,22,0,0,1,27,58.57a21.15,21.15,0,0,1-2.52.08c0-3.95-.07-7.9-.06-11.84a14.79,14.79,0,0,1,.19-4,4,4,0,0,1,3.64-3C34,39.73,39.77,39.76,45.51,39.77Z"/><path class="cls-4" d="M24.52,75.54c8.83.3,15.4,4.23,19.46,12.13a13.88,13.88,0,0,1,1.53,6.77l-.31.12c-5.59-.17-11.18-.08-16.77,0a4.34,4.34,0,0,1-4-4.64q0-6.68,0-13.35C24.45,76.19,24.5,75.87,24.52,75.54Z"/><path class="cls-5" d="M28.43,94.51c5.59,0,11.18-.12,16.77,0a21.51,21.51,0,0,1-3.59.08c-4,0-8,0-12,0A2,2,0,0,1,28.43,94.51Z"/><path class="cls-4" d="M111.18,58.63a20.86,20.86,0,0,1-13.91-5,18.26,18.26,0,0,1-6.85-11.25c-.15-.85-.2-1.73-.3-2.6,3.91,0,7.82-.05,11.73-.06,1.79,0,3.58,0,5.37,0a3.94,3.94,0,0,1,4,3.88C111.23,48.62,111.18,53.63,111.18,58.63Z"/><path class="cls-4" d="M90.21,94.41c.25-7.33,4.21-12.3,10.23-15.9a19.75,19.75,0,0,1,10.73-3c0,5,.06,10.06,0,15.09,0,2.06-1.58,3.52-3.78,3.83l-15.87,0C91.08,94.46,90.65,94.43,90.21,94.41Z"/><path class="cls-6" d="M72.33,81.7a1.57,1.57,0,0,0-1.22,1.38,3.34,3.34,0,0,1-3.21,2.8v-.1c-2.09-.26-3-1.1-3.29-3.13-.09-.68-.53-.7-1-.86a8.09,8.09,0,0,1-5.25-7.63,3.27,3.27,0,0,1,6.43-.81c.66,2.32.66,2.32,3.05,2.41v-.1c.43,0,.87,0,1.3,0a1.52,1.52,0,0,0,1.5-1.2A1.54,1.54,0,0,0,70,72.78c-.67-.5-1.36-1-2-1.44L67.65,71c-2.08-1.54-4.23-3-6.24-4.62a8.09,8.09,0,0,1,2.13-13.86c.66-.26,1.05-.49,1.12-1.33.14-1.56,1.43-2.54,3.22-2.7a.34.34,0,0,1,0-.14,3.45,3.45,0,0,1,3.29,3.34c0,.57.48.57.83.71a8.13,8.13,0,0,1,5.33,7.87,3.42,3.42,0,0,1-3.19,3.18,3.52,3.52,0,0,1-3.37-2.62c-.49-2.27-.49-2.27-2.87-2.2l0-.15-1.09,0a1.61,1.61,0,0,0-1.72,1.07,1.57,1.57,0,0,0,.69,1.9L67.9,63V63a65.57,65.57,0,0,1,6.84,5.09A8.18,8.18,0,0,1,72.33,81.7Z"/></g></g></svg>