<svg xmlns="http://www.w3.org/2000/svg" xmlns:xlink="http://www.w3.org/1999/xlink" viewBox="0 0 99.73 100.06"><defs><style>.cls-1{fill:#fff;}.cls-2{fill:url(#linear-gradient);}.cls-3{fill:#e2e6f3;}.cls-4{fill:#5f69e2;}.cls-5{fill:#f0594f;}.cls-6{fill:#fed944;}.cls-7{fill:#fef4f4;}</style><linearGradient id="linear-gradient" x1="49.87" y1="28.16" x2="49.87" y2="94.19" gradientUnits="userSpaceOnUse"><stop offset="0" stop-color="#ff918f"/><stop offset="1" stop-color="#f05951"/></linearGradient></defs><g id="Layer_2" data-name="Layer 2"><g id="Layer_1-2" data-name="Layer 1"><path class="cls-1" d="M79,0c.82.36,1.72.5,2.52.92a8.17,8.17,0,0,1,4,4.21c1.07,2.66,2,5.4,3,8.1-.28.08-.57.13-.84.23Q80.56,16,73.47,18.61c-5.21,1.9-10.41,3.82-15.62,5.71-2.65,1-5.32,1.88-8,2.82q0-8.79,0-17.58C53.29,8.28,56.72,7,60.15,5.73q7-2.57,14-5.09C74.78.41,75.42.21,76.06,0Z"/><path class="cls-2" d="M99.7,91a8.75,8.75,0,0,1-9.09,9.08q-19.87,0-39.75,0c-.33,0-.65,0-1,0-2.83,0-5.66,0-8.49,0q-16,0-32,0C3.8,100.05,0,96.29,0,90.75,0,75.87.09,61,0,46.11c0-3.57.79-6.61,3.63-8.93a12.28,12.28,0,0,1,7.08-1.64c5.48.07,11,0,16.46,0l9.55,0q6.57,0,13.15,0v.07l11.52-.06,1.17,0H90.9a9,9,0,0,1,1.55.09,9.69,9.69,0,0,1,5.1,2.82h0a1.51,1.51,0,0,1,.17.2,10.67,10.67,0,0,1,2,6.76C99.68,60.62,99.7,75.79,99.7,91Z"/><path class="cls-1" d="M27.17,35.53c-5.49,0-11,.08-16.46,0a12.21,12.21,0,0,0-7.08,1.65,10.21,10.21,0,0,1-.77-6.28,8.78,8.78,0,0,1,5.85-6.42l19.25-7L49.4,9.69l.46-.13q0,8.79,0,17.58v.08c-5.35,1.94-10.7,3.86-16,5.82C31.6,33.86,29.33,34.56,27.17,35.53Z"/><path class="cls-3" d="M61.4,35.54l-11.52.06v-.07c0-2.77,0-5.54,0-8.31v-.08c2.66-.94,5.33-1.86,8-2.82,5.21-1.89,10.41-3.81,15.62-5.71Q80.57,16,87.65,13.46c.27-.1.56-.15.84-.23,1.38,3.64,2.77,7.28,4,11a2.47,2.47,0,0,0-.29.06Q81.61,28.1,71.05,31.94C67.83,33.12,64.62,34.34,61.4,35.54Z"/><path class="cls-1" d="M61.4,35.54c3.22-1.2,6.43-2.42,9.65-3.6q10.56-3.86,21.12-7.66a2.47,2.47,0,0,1,.29-.06q2.36,6.39,4.7,12.8a3.08,3.08,0,0,1,.41,1.48,9.78,9.78,0,0,0-5.12-2.84,9,9,0,0,0-1.55-.09H62.57Z"/><path class="cls-4" d="M97.72,38.69l-.17-.21C97.71,38.47,97.72,38.58,97.72,38.69Z"/><path class="cls-5" d="M57.7,70.74c1.26,0,2.53,0,3.8,0a2.93,2.93,0,1,1,0,5.85c-2.57,0-5.15,0-7.72,0a2.93,2.93,0,1,1,0-5.85C55.09,70.72,56.39,70.74,57.7,70.74Z"/><path class="cls-5" d="M77.26,76.61c-1.3,0-2.6,0-3.9,0a2.93,2.93,0,1,1,0-5.85c2.6,0,5.21,0,7.81,0a2.91,2.91,0,0,1,2.92,2.92,3,3,0,0,1-2.9,2.94H77.26Z"/><path class="cls-6" d="M24.37,64.88H15a3,3,0,0,1-3.22-3.21q0-5.61,0-11.22A3,3,0,0,1,15,47.29H34a3,3,0,0,1,3.18,3.16c0,3.77,0,7.55,0,11.33A3,3,0,0,1,34,64.88C30.81,64.89,27.59,64.88,24.37,64.88Z"/><path class="cls-7" d="M24.43,88.33c-3.16,0-6.31,0-9.47,0a2.94,2.94,0,1,1,0-5.86H34a2.94,2.94,0,1,1,0,5.86C30.81,88.34,27.62,88.33,24.43,88.33Z"/><path class="cls-3" d="M49.86,27.22c0,2.77,0,5.54,0,8.31l-13.15,0c-3.18,0-6.37,0-9.55,0,2.16-1,4.43-1.67,6.65-2.49C39.16,31.08,44.51,29.16,49.86,27.22Z"/><path class="cls-5" d="M18.55,76.61c-1.27,0-2.53,0-3.8,0a2.93,2.93,0,1,1-.05-5.85c2.6,0,5.21,0,7.81,0a2.93,2.93,0,1,1-.05,5.85C21.16,76.62,19.86,76.61,18.55,76.61Z"/><path class="cls-5" d="M38.19,76.61c-1.31,0-2.61,0-3.91,0a2.93,2.93,0,1,1,0-5.85c2.6,0,5.21,0,7.81,0a2.93,2.93,0,0,1,0,5.85C40.79,76.63,39.49,76.61,38.19,76.61Z"/></g></g></svg>