<svg xmlns="http://www.w3.org/2000/svg" xmlns:xlink="http://www.w3.org/1999/xlink" viewBox="0 0 99.46 99.51"><defs><style>.cls-1{fill:url(#linear-gradient);}.cls-2{fill:#fff;}.cls-3{fill:#cfd5ea;}.cls-4{fill:#f0594f;}.cls-5{fill:#fefefe;}.cls-6{fill:#fbfcfd;}</style><linearGradient id="linear-gradient" x1="53.96" y1="7.07" x2="53.96" y2="77.77" gradientUnits="userSpaceOnUse"><stop offset="0" stop-color="#ff918f"/><stop offset="1" stop-color="#f05951"/></linearGradient></defs><g id="Layer_2" data-name="Layer 2"><g id="Layer_1-2" data-name="Layer 1"><path class="cls-1" d="M83.68,36.83a37.75,37.75,0,0,1-2.33,6.94h0c-.2,0-.17.26-.25.39A22,22,0,0,1,78.9,46.5c-2.84,2.86-5.64,5.78-8.56,8.57A7.5,7.5,0,0,1,65,57c-3.69,0-7.38,0-11.06,0-2,0-4,0-5.93.05-.79,0-.72-.45-.7-1S47.1,55,48,55c2,0,3.95,0,5.93,0,3.47,0,6.93,0,10.4,0a7.52,7.52,0,0,0,4.73-1.46,6.27,6.27,0,0,0-3-11.18,43.5,43.5,0,0,0-5.23-.14c-1.33,0-2.66,0-4,0H51.16a46.34,46.34,0,0,0-6.86.38,17.37,17.37,0,0,0-8.66,4.24c-1.21,1.08-2.31,2.27-3.46,3.4-.22.21-.38.54-.78.51A30.31,30.31,0,0,1,24.32,37,30.39,30.39,0,0,1,39,3.93,28.93,28.93,0,0,1,49.45.37,2.3,2.3,0,0,0,50.8,0H57c.45.37,1,.27,1.55.36A29.47,29.47,0,0,1,77.85,11.62C83.69,19.08,85.48,27.56,83.68,36.83Z"/><path class="cls-2" d="M99.46,40.28v2.14C98.8,44.78,97,46.32,95.39,48Q85.69,57.63,76,67.35A18.25,18.25,0,0,1,65.3,72.74,24.13,24.13,0,0,1,62,73q-10.89,0-21.78,0a2.15,2.15,0,0,0-1.7.7c-1.66,1.73-3.37,3.41-5.07,5.11l-1.18-1.12c-1.94-1.87-3.75-3.88-5.77-5.66-.31-.33-.61-.67-.92-1q-3.54-3.57-7.07-7.15Q24.46,57.92,30.4,52c.38-.38.89-.67,1-1.26.4,0,.56-.3.78-.51,1.15-1.13,2.25-2.32,3.46-3.4a17.37,17.37,0,0,1,8.66-4.24,46.34,46.34,0,0,1,6.86-.38h5.68c1.33,0,2.66,0,4,0a43.5,43.5,0,0,1,5.23.14,6.27,6.27,0,0,1,3,11.18A7.52,7.52,0,0,1,64.32,55c-3.47,0-6.93,0-10.4,0-2,0-4,0-5.93,0-.89,0-.66.58-.69,1s-.09,1,.7,1c2-.06,4,0,5.93-.05,3.68,0,7.37,0,11.06,0a7.5,7.5,0,0,0,5.35-1.93c2.92-2.79,5.72-5.71,8.56-8.57a22,22,0,0,0,2.19-2.33.34.34,0,0,0,.26-.39c.46,0,.65-.38.92-.64,2.16-2.14,4.28-4.33,6.48-6.44a6.36,6.36,0,0,1,9.36.72A12.46,12.46,0,0,1,99.46,40.28Z"/><path class="cls-3" d="M39.41,84.75c-2-2-4-4-5.95-6l-1.18-1.12c-1.94-1.87-3.75-3.88-5.78-5.66-.3-.33-.6-.67-.91-1q-3.54-3.57-7.07-7.15c-1.34-1.31-2.69-2.61-4-3.94-.35-.35-.56-.4-.93,0Q6.94,66.54.26,73.19c-.36.35-.34.57,0,.92q6.09,6,12.17,12.12s.06.12.1.16c4.28,4.29,8.57,8.56,12.83,12.86.47.48.66.19,1-.11,4.37-4.38,8.73-8.76,13.13-13.11C40,85.48,39.89,85.21,39.41,84.75ZM28.34,90.92a3,3,0,1,1,3-2.92A3,3,0,0,1,28.34,90.92Z"/><path class="cls-4" d="M61.12,33.78c.45,3.34-.95,5.74-3.77,7.4a1,1,0,0,0-.51,1H51.16a.92.92,0,0,0-.59-1.08,7.35,7.35,0,0,1-3.8-5.34c-.13-.65,0-1,.8-1,1.36.06,2.72,0,4.08,0,.41,0,.76,0,.91.51a1.34,1.34,0,0,0,1.34.94l0-.08c.93.1,1.35-.49,1.52-1.25s-.51-1.36-1.52-1.63v-.06a7.33,7.33,0,0,1-7-5.85,7,7,0,0,1,3.35-7.57,1.62,1.62,0,0,0,.93-1.77c-.13-.87.17-1.26,1.1-1.14a15.1,15.1,0,0,0,1.65,0v-.06c.71,0,1.42.06,2.13,0s.88.18.77.77a2.14,2.14,0,0,0,1.28,2.4c2,1.23,2.84,3.24,3.14,5.51,0,.35-.1.48-.42.48H55.88c-.37,0-.47-.3-.56-.57a1.29,1.29,0,0,0-1.39-1l0-.05c-1,.23-1.59.76-1.49,1.54a1.46,1.46,0,0,0,1.48,1.46l0-.07a8.63,8.63,0,0,1,4.72,1.79A7.07,7.07,0,0,1,61.12,33.78Z"/><path class="cls-5" d="M81.09,44.17c.08-.13.06-.35.26-.4A.35.35,0,0,1,81.09,44.17Z"/><path class="cls-6" d="M28.34,90.92a3,3,0,1,1,3-2.92A3,3,0,0,1,28.34,90.92Z"/></g></g></svg>