<svg xmlns="http://www.w3.org/2000/svg" xmlns:xlink="http://www.w3.org/1999/xlink" viewBox="0 0 110.1 112.47"><defs><style>.cls-1{fill:#e2e6f3;}.cls-2{fill:#cfd5ea;}.cls-3{fill:url(#linear-gradient);}.cls-4{fill:#e5e8ea;}.cls-5{fill:#f0594f;}</style><linearGradient id="linear-gradient" x1="86.73" y1="7.28" x2="86.73" y2="102.24" gradientUnits="userSpaceOnUse"><stop offset="0" stop-color="#feeed6"/><stop offset="1" stop-color="#f05951"/></linearGradient></defs><g id="Layer_2" data-name="Layer 2"><g id="Layer_1-2" data-name="Layer 1"><path class="cls-1" d="M63.4,39c0,5.43-.27,10.88.39,16.29a31.76,31.76,0,0,0,8.83,18.29c3,3.23,6.86,5.39,10.68,7.53a9.75,9.75,0,0,0,3.54,1.66q0,11.76,0,23.51A5.77,5.77,0,0,1,83,112c-.26.11-.59.12-.59.52H4.39c0-.24-.16-.35-.41-.44a5.34,5.34,0,0,1-4-5.58V5.7A5.5,5.5,0,0,1,2.76.7c.3-.18.72-.23.75-.7H83.1a.48.48,0,0,0,.29.42,6.05,6.05,0,0,1,3.45,5.93c0,7.72,0,15.45,0,23.17-.43,0-.87.07-1.31.07l-8.76,0a3.54,3.54,0,0,0-3.41,1.95A7.44,7.44,0,0,1,66.48,36,3.28,3.28,0,0,0,63.4,39Z"/><path class="cls-2" d="M53.46,74.2A3.41,3.41,0,0,1,50,77.54c-2.23.06-4.46,0-6.69,0-.76,0-1.52,0-2.29-.06a.17.17,0,0,1,0,.14,3.19,3.19,0,0,0-1.3-.12H18.78a3.32,3.32,0,1,1,.11-6.61H39.6c.47,0,.94-.07,1.41-.1a.17.17,0,0,1,0,.12c3.07,0,6.13-.09,9.2,0A3.36,3.36,0,0,1,53.46,74.2Z"/><path class="cls-2" d="M53.46,37a3.43,3.43,0,0,1-3.71,3.31l-8.75,0-.2-.09c-7.44,0-14.89,0-22.34,0a3.27,3.27,0,0,1-.11-6.54c7.48,0,15,0,22.45,0l.2-.1,8.75,0C51.94,33.74,53.46,35.09,53.46,37Z"/><path class="cls-2" d="M53.46,50.18a3.43,3.43,0,0,1-3.71,3.31l-8.75,0-.2-.08c-7.44,0-14.89,0-22.34,0a3.28,3.28,0,0,1-3.23-3.34,3.22,3.22,0,0,1,3.12-3.2c7.48,0,15,0,22.45,0l.2-.1,8.75,0C51.94,46.9,53.46,48.25,53.46,50.18Z"/><path class="cls-3" d="M110.07,51.31c-.24,11.8-5.42,20.88-15.27,27.31-1.86,1.21-3.8,2.29-5.71,3.44a3.08,3.08,0,0,1-2.25.61l0,0,0,0A9.75,9.75,0,0,1,83.3,81.1c-3.82-2.14-7.63-4.3-10.68-7.53a31.76,31.76,0,0,1-8.83-18.29c-.66-5.41-.35-10.86-.39-16.29a3.28,3.28,0,0,1,3.08-3,7.44,7.44,0,0,0,6.88-4.41,3.54,3.54,0,0,1,3.41-1.95l8.76,0c.44,0,.88-.05,1.31-.07v.08l7.47-.13.1,0,.09-.05c.76,0,1.53,0,2.29,0A3.38,3.38,0,0,1,100,31.43a7.44,7.44,0,0,0,6.34,4.2c2.8.26,3.74,1.34,3.75,4.18C110.06,43.64,110.15,47.48,110.07,51.31Z"/><path class="cls-2" d="M64.9,90.24a3.79,3.79,0,0,1-1.89.47H41.31a1.92,1.92,0,0,1-.32,0,.17.17,0,0,1,0,.14,3.19,3.19,0,0,0-1.3-.12H18.78a3.32,3.32,0,1,1,.11-6.61H39.6c.47,0,.94-.06,1.41-.1a.13.13,0,0,1,0,.12l12.16,0c3.33,0,6.65,0,10,0a3.32,3.32,0,0,1,3.39,2.69A3.29,3.29,0,0,1,64.9,90.24Z"/><path class="cls-2" d="M66.62,23.87a3.39,3.39,0,0,1-3.28,3.3c-2.27,0-4.53,0-6.79,0L41,27.14l0,.09c-2.22,0-4.45-.06-6.67-.06-5.19,0-10.37,0-15.56,0a3.29,3.29,0,1,1,0-6.57H39.7c.44,0,.88-.05,1.31-.08v.11c7.48,0,15,0,22.45,0A3.25,3.25,0,0,1,66.62,23.87Z"/><path class="cls-2" d="M53.46,63.24A3.41,3.41,0,0,1,50,66.58c-2.23.06-4.46,0-6.69,0-.76,0-1.52,0-2.29-.06a.17.17,0,0,1,0,.14,3.19,3.19,0,0,0-1.3-.12h-20c-.29,0-.59,0-.88,0a3.32,3.32,0,1,1,.11-6.61c6.9,0,13.81,0,20.71,0,.47,0,.94-.07,1.41-.11A.19.19,0,0,1,41,60c3.07,0,6.13-.09,9.2,0A3.35,3.35,0,0,1,53.46,63.24Z"/><path class="cls-4" d="M94.49,29.45l-.09.05-.1,0Z"/><path class="cls-5" d="M97.11,52.2c-3.13,3.22-6.29,6.39-9.46,9.57a3.81,3.81,0,0,1-.82.52v-.1a3.14,3.14,0,0,1-3.71-.72c-1.51-1.44-3-2.9-4.43-4.4a3.24,3.24,0,0,1,0-4.7,3.34,3.34,0,0,1,4.63.08c.32.3.63.61.94.92,1.16,1.15,1.16,1.15,2.38.13l.2-.38c1.81-1.8,3.62-3.6,5.41-5.41a3.26,3.26,0,0,1,3.31-.92,3.18,3.18,0,0,1,2.38,2.58A3,3,0,0,1,97.11,52.2Z"/></g></g></svg>