<svg xmlns="http://www.w3.org/2000/svg" xmlns:xlink="http://www.w3.org/1999/xlink" viewBox="0 0 112.48 112.48"><defs><style>.cls-1{fill:#e2e6f3;}.cls-2{fill:#cfd5ea;}.cls-3{fill:url(#linear-gradient);}</style><linearGradient id="linear-gradient" x1="56.27" y1="38.45" x2="56.27" y2="103.29" gradientUnits="userSpaceOnUse"><stop offset="0" stop-color="#feeed6"/><stop offset="1" stop-color="#f05951"/></linearGradient></defs><g id="Layer_2" data-name="Layer 2"><g id="Layer_1-2" data-name="Layer 1"><path class="cls-1" d="M112.48,24.38V39.31a3.9,3.9,0,0,1-4.18,2.45c-2.33-.12-4.68,0-7,0H11.24c-2.64,0-5.27,0-7.91,0A3.29,3.29,0,0,1,0,38.45c0-4.39,0-8.78,0-13.17A3.15,3.15,0,0,1,2.09,22.2c1.24-.54,2.5-1,3.75-1.55l15.89-6.58L43.49,5c4-1.66,8-3.2,11.89-5h1.76a1.24,1.24,0,0,0,.26.19Q69,5,80.58,9.82q14.33,5.94,28.66,11.84C110.63,22.23,111.9,22.88,112.48,24.38Z"/><ellipse class="cls-2" cx="93.6" cy="63.69" rx="10.88" ry="31.06"/><ellipse class="cls-2" cx="18.92" cy="63.69" rx="10.87" ry="31.06"/><path class="cls-2" d="M78.74,27.05a3.13,3.13,0,0,1-3,1.5h-39a3.25,3.25,0,0,1-3-5.09,3.13,3.13,0,0,1,3-1.5h39A3.24,3.24,0,0,1,78.74,27.05Z"/><path class="cls-2" d="M112.48,98.39V110c-.81,1.83-2.2,2.45-4.19,2.45-16.87,0-33.73,0-50.59,0-.48,0-1,0-1.43,0l-30.27,0H3.73A3.34,3.34,0,0,1,0,108.8c0-3,.09-5.93,0-8.88a3.55,3.55,0,0,1,4-4,4.85,4.85,0,0,0,.66,0H33.21l23.06,0,23,0h28.59C110,95.78,111.63,96.31,112.48,98.39Z"/><path class="cls-1" d="M33.21,96H4.64q0-3.33,0-6.66a3.34,3.34,0,0,1,3.64-3.66H26.61c1.09,0,2.18,0,3.27,0A3.3,3.3,0,0,1,33.19,89C33.22,91.31,33.2,93.64,33.21,96Z"/><path class="cls-1" d="M85.9,85.65h15.39c1.1,0,2.19,0,3.29,0a3.3,3.3,0,0,1,3.28,3.28c0,2.34,0,4.68,0,7H79.3c0-2.27,0-4.54,0-6.8a3.31,3.31,0,0,1,3.51-3.5Z"/><path class="cls-3" d="M65.81,72.52a9.78,9.78,0,0,0-9.53-7.26,4,4,0,0,1-1.76-.57,3.31,3.31,0,0,1-1.5-3.3c.33-1.59,1.33-2.44,3.25-2.78,2.35.53,3,1.31,3.29,3.68A3.29,3.29,0,0,0,63,65.23,3.21,3.21,0,0,0,66.13,62a9.45,9.45,0,0,0-5.26-8.81A2.07,2.07,0,0,1,59.52,51a3.09,3.09,0,0,0-3.25-3.32A3.2,3.2,0,0,0,53,51.23a1.75,1.75,0,0,1-1.15,1.9,9.84,9.84,0,0,0,4.44,18.66,3.52,3.52,0,0,1,3,2.16,3.34,3.34,0,0,1-3,4.49c-2.22-.4-3.1-1.34-3.31-3.55a3.31,3.31,0,0,0-3.38-3.07,3.24,3.24,0,0,0-3.19,3.36,9.51,9.51,0,0,0,5.25,8.63A2.1,2.1,0,0,1,53,86a3.15,3.15,0,0,0,3.28,3.34,3.1,3.1,0,0,0,3.24-3.22A2.18,2.18,0,0,1,61,83.77,9.76,9.76,0,0,0,65.81,72.52Z"/></g></g></svg>