<svg xmlns="http://www.w3.org/2000/svg" xmlns:xlink="http://www.w3.org/1999/xlink" viewBox="0 0 112.55 112.47"><defs><style>.cls-1{fill:#fff;}.cls-2{fill:url(#linear-gradient);}.cls-3{fill:url(#linear-gradient-2);}.cls-4{fill:#cfd5ea;}.cls-5{fill:#173e54;}.cls-6{fill:#f5f6fc;}.cls-7{fill:url(#linear-gradient-3);}.cls-8{fill:#f7726d;}.cls-9{fill:#0d2c3a;}.cls-10{fill:#fed580;}.cls-11{fill:#5d1f5a;}</style><linearGradient id="linear-gradient" x1="92.55" y1="6.8" x2="89.81" y2="108.15" gradientUnits="userSpaceOnUse"><stop offset="0" stop-color="#ff918f"/><stop offset="1" stop-color="#f05951"/></linearGradient><linearGradient id="linear-gradient-2" x1="97.2" y1="-2.84" x2="97.2" y2="28.85" xlink:href="#linear-gradient"/><linearGradient id="linear-gradient-3" x1="33.49" y1="19.85" x2="33.49" y2="71.14" xlink:href="#linear-gradient"/></defs><g id="Layer_2" data-name="Layer 2"><g id="Layer_1-2" data-name="Layer 1"><path class="cls-1" d="M70.24,80.47V94.63l0,13.79c0,2.67-1.14,3.83-3.77,3.83H35.11a2.28,2.28,0,0,0-.22.22H2.64c-.52-.91-1.78-1.09-2.09-2.19a.57.57,0,0,0-.55-.45V2.41C.73,1.61,1.47.81,2.2,0H35.11V28.09l-.22.2q-8.61,0-17.21,0a3.2,3.2,0,0,0-3.39,3.38q0,10.46,0,20.92a3.29,3.29,0,0,0,3.36,3.34c3.58,0,7.17,0,10.75,0a45.91,45.91,0,0,0,.83,7.48l-.87,0c-3.55,0-7.09,0-10.63,0a3.35,3.35,0,0,0-3.43,3.27A3.31,3.31,0,0,0,17.78,70c4.75,0,9.5,0,14.24,0a53.22,53.22,0,0,0,3.08,4.39c0,1,0,2,0,3-.43,0-.87.1-1.3.1H18.47a7.72,7.72,0,0,0-1.52.11,3.25,3.25,0,0,0-.32,6.31,6.65,6.65,0,0,0,1.73.17H33.81a3,3,0,0,1,1.3.11.3.3,0,0,0,0-.13c5.78.15,11.56.08,17.34,0l1.72.05a30.94,30.94,0,0,0,5.77-.32A28.67,28.67,0,0,0,70.24,80.47Z"/><path class="cls-2" d="M112.55,23.68v68.4c-.59,1.31-1.4,2.36-3,2.46-.27-.24-.55-.48-.8-.74L95.65,80.71a10.31,10.31,0,0,0-9.15-3.12c-1.09.16-2.07.66-3.13.89L78.5,73.62c.49-1.39,1.59-2.41,2.27-3.68l14.37,0a3.1,3.1,0,0,0,3-2A3.28,3.28,0,0,0,95,63.39c-3.83,0-7.67,0-11.51,0a41,41,0,0,0,1-7.48c3.5,0,7,0,10.52,0a3.28,3.28,0,1,0,0-6.56c-3.8,0-7.6,0-11.4,0a39.3,39.3,0,0,0-3.09-7.51H94.77a3.41,3.41,0,0,0,3.7-3.34c0-1.91-1.51-3.23-3.67-3.23H80.33c-1.72,0-3.43,0-5.15.06a52.22,52.22,0,0,0-4.94-3.54q0-7.78,0-15.55c0-3.06,0-6.11,0-9.17H81.86a3.57,3.57,0,0,1,2.43,3.82c-.1,2.11,0,4.23,0,6.35a3.57,3.57,0,0,0,3.82,3.88c6.69-.12,13.37,0,20-.07C110.23,21,111.75,21.67,112.55,23.68Z"/><path class="cls-1" d="M70.19,16.22q0,7.77,0,15.55a47.23,47.23,0,0,0-5-2.18,32.31,32.31,0,0,0-10.33-1.5,13.06,13.06,0,0,0-2.5.05l-17.3-.05V0h5.26c.07.17.09.4.21.48A3.73,3.73,0,0,1,42.14,4c0,2.11,0,4.23,0,6.35,0,2.51,1.18,3.69,3.67,3.69,6.72,0,13.44.05,20.16,0C67.86,14,69.31,14.47,70.19,16.22Z"/><path class="cls-3" d="M112.55,23.68c-.79-2-2.32-2.65-4.41-2.64-6.68.07-13.36-.05-20,.07a3.57,3.57,0,0,1-3.82-3.88c0-2.12-.08-4.24,0-6.35a3.57,3.57,0,0,0-2.43-3.82c8.72,0,17.43,0,26.15-.06,2.06,0,3.62.51,4.54,2.43Z"/><path class="cls-4" d="M70.19,16.22C69.31,14.47,67.86,14,66,14c-6.72.08-13.44,0-20.16,0-2.49,0-3.67-1.18-3.67-3.69,0-2.12,0-4.24,0-6.35A3.73,3.73,0,0,0,40.58.48C40.46.4,40.44.17,40.37,0H67.79a3.72,3.72,0,0,1,2.44,4.12c-.09,1,0,2,0,2.93C70.22,10.11,70.21,13.16,70.19,16.22Z"/><path class="cls-5" d="M112.55,98.22V100a41.65,41.65,0,0,1-6.12,6.4c-1.67,1.69-3.28,3.43-5,5-1.37,1.28-3.22,1.08-4.69-.38l-16-16c-.15-.15-.32-.29-.48-.43a11,11,0,0,1-2.5-7.13,17.49,17.49,0,0,1,1-4.42c.81-.81,1.14-2,2.18-2.64.54-1,1.6-1.33,2.41-2,1.06-.23,2-.73,3.13-.89a10.31,10.31,0,0,1,9.15,3.12L108.76,93.8c.25.26.53.5.8.74C110.52,95.8,112,96.64,112.55,98.22Z"/><path class="cls-6" d="M112.55,98.22c-.56-1.58-2-2.42-3-3.68,1.59-.1,2.4-1.15,3-2.46Z"/><path class="cls-4" d="M29.24,63.36A54.93,54.93,0,0,0,32,69.94c-4.74,0-9.49,0-14.23,0a3.31,3.31,0,0,1-3.48-3.3,3.35,3.35,0,0,1,3.43-3.27c3.54,0,7.08,0,10.63,0Z"/><path class="cls-7" d="M52.7,28.31c-1,.21-2,.39-3,.64a26.9,26.9,0,0,0-13.09,7.44L35.1,37.93a28.81,28.81,0,0,0-6.27,13.39c-.27,1.51-.29,3-.42,4.56-3.58,0-7.17,0-10.75,0a3.29,3.29,0,0,1-3.36-3.34q0-10.45,0-20.92a3.2,3.2,0,0,1,3.39-3.38q8.59,0,17.21,0l.22-.2,17.3.05Z"/><path class="cls-1" d="M35.1,74.33l3.07,3-3.08.11a.5.5,0,0,0,0-.12C35.11,76.36,35.1,75.34,35.1,74.33Z"/><path class="cls-5" d="M83.61,49.33a39.3,39.3,0,0,0-3.09-7.51,36.24,36.24,0,0,0-5.34-6.51,52.22,52.22,0,0,0-4.94-3.54,47.23,47.23,0,0,0-5-2.18,32.31,32.31,0,0,0-10.33-1.5,6.1,6.1,0,0,1-2.21.22c-1,.21-2,.39-3,.64a26.9,26.9,0,0,0-13.09,7.44L35.1,37.93a28.81,28.81,0,0,0-6.27,13.39c-.27,1.51-.29,3-.42,4.56a45.91,45.91,0,0,0,.83,7.48A54.93,54.93,0,0,0,32,69.94a53.22,53.22,0,0,0,3.08,4.39l3.07,3a28.75,28.75,0,0,0,12.23,6c.67.15,1.36.26,2,.39a4.22,4.22,0,0,1,1.71.35,30.94,30.94,0,0,0,5.77-.32,28.67,28.67,0,0,0,10.32-3.36,26.22,26.22,0,0,1,3.6-2.26c.51-1,1.67-1.43,2.29-2.36,1-.51,1.34-1.74,2.37-2.23.49-1.39,1.59-2.41,2.27-3.68a34.11,34.11,0,0,0,2.69-6.57,41,41,0,0,0,1-7.48A53.77,53.77,0,0,0,83.61,49.33Zm-12,21.73c0,.07,0,.14-.07.22A23.59,23.59,0,0,1,64.14,76,21.27,21.27,0,0,1,36,62.19a20.65,20.65,0,0,1,5-20.77,3.47,3.47,0,0,0,.31-.44l.22-.07a20.36,20.36,0,0,1,13.08-6.08A21.36,21.36,0,0,1,77.71,54.62,20.35,20.35,0,0,1,71.61,71.06Z"/><path class="cls-8" d="M80.52,41.82a36.24,36.24,0,0,0-5.34-6.51c1.72,0,3.43-.06,5.15-.06H94.8c2.16,0,3.64,1.32,3.67,3.23a3.41,3.41,0,0,1-3.7,3.34Z"/><path class="cls-8" d="M80.78,69.94a34.72,34.72,0,0,0,2.68-6.57c3.84,0,7.68,0,11.52,0A3.28,3.28,0,0,1,98.16,68a3.1,3.1,0,0,1-3,2Z"/><path class="cls-8" d="M84.47,55.89a53.77,53.77,0,0,0-.86-6.56c3.8,0,7.6,0,11.4,0a3.28,3.28,0,1,1,0,6.56C91.48,55.91,88,55.89,84.47,55.89Z"/><path class="cls-9" d="M76.13,75.85c1-.51,1.34-1.74,2.37-2.23l4.87,4.86c-.8.66-1.87,1-2.41,2-1,.63-1.37,1.83-2.18,2.64l-4.94-4.9C74.35,77.18,75.51,76.78,76.13,75.85Z"/><path class="cls-10" d="M54.91,28.09a6.1,6.1,0,0,1-2.21.22l-.29-.17A13.06,13.06,0,0,1,54.91,28.09Z"/><path class="cls-8" d="M78.78,83.11a17.49,17.49,0,0,0-1,4.42,11,11,0,0,0,2.5,7.13l-10.05,0V80.47a26.22,26.22,0,0,1,3.6-2.26Z"/><path class="cls-4" d="M56.17,94.88c0,2-1.52,3.33-3.79,3.32l-17.29,0,0,.09c-1.42,0-2.84-.07-4.26-.07-4.34,0-8.69,0-13,0a3.29,3.29,0,0,1-1.19-6.43,4.79,4.79,0,0,1,1.51-.14H33.8c.44,0,.87-.06,1.31-.08a.07.07,0,0,1,0,.1c1.79,0,3.57-.06,5.36-.06,4,0,8,0,11.93,0C54.7,91.57,56.17,92.88,56.17,94.88Z"/><path class="cls-4" d="M52.44,83.8c0,.1,0,.2,0,.3-5.78,0-11.56.11-17.34,0a.3.3,0,0,1,0,.13,3,3,0,0,0-1.3-.11H18.36a6.65,6.65,0,0,1-1.73-.17A3.25,3.25,0,0,1,17,77.59a7.72,7.72,0,0,1,1.52-.11H33.81c.43,0,.87-.06,1.3-.1a.5.5,0,0,1,0,.12l3.08-.11a28.75,28.75,0,0,0,12.23,6C51.07,83.56,51.76,83.67,52.44,83.8Z"/><path class="cls-11" d="M52.43,84.1v-.3a4.22,4.22,0,0,1,1.71.35Z"/><path class="cls-4" d="M71.61,71.06c0,.07,0,.14-.07.22A23.59,23.59,0,0,1,64.14,76,21.27,21.27,0,0,1,36,62.19a20.65,20.65,0,0,1,5-20.77,3.47,3.47,0,0,0,.31-.44l.22-.07a20.36,20.36,0,0,1,13.08-6.08A21.36,21.36,0,0,1,77.71,54.62,20.35,20.35,0,0,1,71.61,71.06Z"/></g></g></svg>