<svg xmlns="http://www.w3.org/2000/svg" xmlns:xlink="http://www.w3.org/1999/xlink" viewBox="0 0 112.21 112.21"><defs><style>.cls-1{fill:#e2e6f3;}.cls-2{fill:#fefdfa;}.cls-3{fill:#f0594f;}.cls-4{fill:url(#linear-gradient);}.cls-5{fill:url(#linear-gradient-2);}.cls-6{fill:url(#linear-gradient-3);}.cls-7{fill:#cfd5ea;}</style><linearGradient id="linear-gradient" x1="42.95" y1="17.07" x2="42.95" y2="38.26" gradientUnits="userSpaceOnUse"><stop offset="0" stop-color="#feeed6"/><stop offset="1" stop-color="#f05951"/></linearGradient><linearGradient id="linear-gradient-2" x1="89.09" y1="91.72" x2="89.09" y2="120.89" xlink:href="#linear-gradient"/><linearGradient id="linear-gradient-3" x1="89.1" y1="65.31" x2="89.1" y2="94.86" xlink:href="#linear-gradient"/></defs><g id="Layer_2" data-name="Layer 2"><g id="Layer_1-2" data-name="Layer 1"><path class="cls-1" d="M44.49,0a18.93,18.93,0,0,1,3.39,1.33,9.81,9.81,0,0,1,4,4.48,1.09,1.09,0,0,0,1.2.78c3.1,0,6.2,0,9.29,0,2.67,0,4.16,2,3.33,4.54-1.66,5.15-3.37,10.28-5.06,15.41L43,26.48Q43,13.25,43,0Z"/><path class="cls-1" d="M43,0q0,13.25,0,26.48v.08H25.28c-1.64-5-3.18-10.07-5-15a3.51,3.51,0,0,1,3.61-5c3,.16,6,0,9,0A1,1,0,0,0,34,5.94,9.61,9.61,0,0,1,41.07.21,1.41,1.41,0,0,0,41.42,0Z"/><path class="cls-2" d="M112.21,78A21.68,21.68,0,0,0,111,75.54a8,8,0,0,0-4.11-2.78A7.57,7.57,0,0,0,111,70c.46-.71.81-1.49,1.21-2.24Z"/><path class="cls-2" d="M106.91,85.91a7.36,7.36,0,0,0,4.71-3.82c.19-.41.15-.93.59-1.22v10.3a8.39,8.39,0,0,0-2.71-4A19.82,19.82,0,0,0,106.91,85.91Z"/><path class="cls-2" d="M112.21,104.32a21.68,21.68,0,0,0-1.19-2.48,8,8,0,0,0-4.11-2.78,7.62,7.62,0,0,0,4.09-2.8c.46-.71.81-1.49,1.21-2.24Z"/><path class="cls-1" d="M66.62,63.43a6.22,6.22,0,0,0,.77,6.77,7.39,7.39,0,0,0,4.19,2.55A5.65,5.65,0,0,1,71,73a6.54,6.54,0,0,0-3.31,10.74,7.69,7.69,0,0,0,3.92,2.2c-.21.07-.41.16-.61.21a6.52,6.52,0,0,0-3.46,10.54,7.42,7.42,0,0,0,4.07,2.39,7.62,7.62,0,0,0-4,2.3c-2,2.47-2,5.09-.63,7.84a51.36,51.36,0,0,1-11,2.36,93.45,93.45,0,0,1-13,.62c-8.31,0-16.54-.51-24.48-3.26C11.59,106.53,5.91,102.6,2.69,95.8A30.72,30.72,0,0,1,.05,80.88,46,46,0,0,1,2.76,67.21,47.36,47.36,0,0,1,16.19,47.56a43.06,43.06,0,0,1,12.52-7.68,1.24,1.24,0,0,0,.26-.19l14-.06v.07h14a52.28,52.28,0,0,1,8.88,4.84,45.25,45.25,0,0,1,13.59,15c-2.33,0-4.66,0-7,.06A6.27,6.27,0,0,0,66.62,63.43Z"/><path class="cls-3" d="M112.21,64.87v2.85c-.4.75-.75,1.52-1.21,2.24a7.62,7.62,0,0,1-4.09,2.8c-.6.33-1.2,0-1.8,0-5.38,0-10.75,0-16.13,0H71.58a7.39,7.39,0,0,1-4.19-2.55,6.55,6.55,0,0,1,5-10.57c2.33-.09,4.66,0,7-.06l9.59.07c5.71,0,11.43,0,17.15,0a6.43,6.43,0,0,1,5.67,4.27C111.93,64.23,111.83,64.66,112.21,64.87Z"/><path class="cls-4" d="M59.55,39.66c-.87,0-1.75,0-2.62,0H43v-.07l-14,.06-2.18,0A6.64,6.64,0,0,1,20,33.93c-.47-3.13,1.49-6.05,4.79-7.17a4.19,4.19,0,0,0,.49-.2H43v-.07l17.7.05A7.47,7.47,0,0,1,65.2,30,6.58,6.58,0,0,1,59.55,39.66Z"/><path class="cls-5" d="M112.21,104.32v2.85c-.5.46-.51,1.15-.85,1.71a6.1,6.1,0,0,1-5.21,3.28c-5.72.1-11.45,0-17.17,0-5.53,0-11.06,0-16.59,0a6.77,6.77,0,0,1-5.43-3c-1.42-2.75-1.38-5.37.63-7.84a7.62,7.62,0,0,1,4-2.3H89l0,0c5.45,0,10.89,0,16.34,0,.53,0,1.06.37,1.58,0a7.89,7.89,0,0,1,4.11,2.78A20.9,20.9,0,0,1,112.21,104.32Z"/><path class="cls-3" d="M112.21,91.17V94c-.4.74-.75,1.52-1.21,2.24a7.62,7.62,0,0,1-4.09,2.8c-.52.35-1,0-1.58,0-5.45,0-10.89,0-16.34,0l0,0H71.58a7.42,7.42,0,0,1-4.07-2.39A6.52,6.52,0,0,1,71,86.12c.2-.05.4-.14.61-.21h35.33a21.26,21.26,0,0,1,2.59,1.25A8.39,8.39,0,0,1,112.21,91.17Z"/><path class="cls-6" d="M112.21,78v2.85c-.44.28-.4.81-.59,1.22a7.35,7.35,0,0,1-4.71,3.81H71.58a7.69,7.69,0,0,1-3.92-2.2A6.54,6.54,0,0,1,71,73a5.65,5.65,0,0,0,.61-.22H95.43c3.23,0,6.45,0,9.68,0,.6,0,1.2.35,1.8,0A7.89,7.89,0,0,1,111,75.54,21.68,21.68,0,0,1,112.21,78Z"/><path class="cls-7" d="M52.76,83.84a9.27,9.27,0,0,1-5.49,8.52,1.53,1.53,0,0,0-1,1.74,11.63,11.63,0,0,1,0,1.32c0,2.27-1,3.42-3.28,3.67V99c-1.94-.08-3.38-1.33-3.24-3.22a3.82,3.82,0,0,0-2.25-4.17,8.71,8.71,0,0,1-4.38-7.73,3.14,3.14,0,0,1,2.84-3.5,3.24,3.24,0,0,1,3.71,3.14c.26,2.14,1.17,3,3.34,3.34v-.1a3,3,0,0,0,3.09-3.18A2.94,2.94,0,0,0,43,80.43a1,1,0,0,1,0-.17,9.93,9.93,0,0,1-9.49-7.14,9.65,9.65,0,0,1,5-11.36,1.75,1.75,0,0,0,1.2-2c-.08-1.16,0-2.33,0-3.5A3.17,3.17,0,0,1,43,53.07V53c2.25.25,3.28,1.4,3.28,3.68,0,1.24,0,2.49,0,3.73a1,1,0,0,0,.71,1.07,9.79,9.79,0,0,1,5.83,8.23,3.48,3.48,0,0,1-3,4.08c-1.61.24-3.18-1.13-3.57-3.1-.48-2.5-1.24-3.31-3.2-3.41v-.1c-1.87.23-3.12,1.28-3.31,2.77a3.22,3.22,0,0,0,2,3.5,8.71,8.71,0,0,0,1.27.3v-.11A13.61,13.61,0,0,1,47.65,75,9.53,9.53,0,0,1,52.76,83.84Z"/></g></g></svg>