<svg xmlns="http://www.w3.org/2000/svg" xmlns:xlink="http://www.w3.org/1999/xlink" viewBox="0 0 110.85 119.72"><defs><style>.cls-1{fill:#fff;}.cls-2{fill:url(#linear-gradient);}.cls-3{fill:url(#linear-gradient-2);}.cls-4{fill:url(#linear-gradient-3);}</style><linearGradient id="linear-gradient" x1="88.7" y1="-2.3" x2="88.7" y2="38.79" gradientUnits="userSpaceOnUse"><stop offset="0" stop-color="#ff918f"/><stop offset="1" stop-color="#f05951"/></linearGradient><linearGradient id="linear-gradient-2" x1="53.63" y1="22.35" x2="53.63" y2="70.63" xlink:href="#linear-gradient"/><linearGradient id="linear-gradient-3" x1="29.08" y1="-8.96" x2="29.08" y2="35.99" xlink:href="#linear-gradient"/></defs><g id="Layer_2" data-name="Layer 2"><g id="Layer_1-2" data-name="Layer 1"><path class="cls-1" d="M110,73.47a8.57,8.57,0,0,1-.87.94Q97.56,86,86,97.63a25.17,25.17,0,0,1-13.8,7.48,14.2,14.2,0,0,1-2.42.32c-4.79,0-9.58,0-14.37,0s-9.49,0-14.24,0a2.34,2.34,0,0,0-1.83.76c-3.86,3.9-7.76,7.77-11.63,11.66a7.67,7.67,0,0,1-2.48,1.86H23.56a8.23,8.23,0,0,1-2.47-1.87C14.49,111.23,7.92,104.59,1.25,98a3.94,3.94,0,0,1,0-5.74C6.89,86.78,12.43,81.14,18,75.56a17.22,17.22,0,0,1,12.58-5.18l25.65,0h.49c2.68,0,5.36-.08,8,0,3.15.07,6.06,3,6.4,6.35a7.18,7.18,0,0,1-5,7.4,6.24,6.24,0,0,1-1.83.27c-2.44,0-4.87,0-7.31,0l-18.23,0a3.46,3.46,0,0,0-3.41,2.36,3.58,3.58,0,0,0,1.13,3.9,3.82,3.82,0,0,0,2.51.76c5.46,0,10.91,0,16.36,0,3.9,0,7.79-.06,11.68,0a18.3,18.3,0,0,0,13.71-5.65C86.32,80.16,91.93,74.59,97.52,69c3.48-3.47,7.91-3.76,11.78-.77A3.59,3.59,0,0,1,110,73.47Z"/><path class="cls-2" d="M91.53,34.86a11.78,11.78,0,0,1-2.78.17c-8.27.34-15.8-6-17.35-14.65C69.54,10,77.86,0,88.29,0l.46,0C96-.33,103.08,4.9,105.46,12.32A17.58,17.58,0,0,1,91.53,34.86Z"/><path class="cls-3" d="M56.46,63.16a11.82,11.82,0,0,1-2.78.17c-8.27.33-15.81-6-17.35-14.66-1.86-10.35,6.46-20.39,16.88-20.38.16,0,.31,0,.47,0C60.89,28,68,33.19,70.39,40.61A17.6,17.6,0,0,1,56.46,63.16Z"/><path class="cls-4" d="M31,28a14.52,14.52,0,0,1-1.87,0c-7.1.27-13.67-5.91-14.07-13A14.12,14.12,0,0,1,28.78,0l.34,0C35.54-.28,41.88,5.16,43,11.58A14.25,14.25,0,0,1,31,28Z"/></g></g></svg>