<svg xmlns="http://www.w3.org/2000/svg" xmlns:xlink="http://www.w3.org/1999/xlink" viewBox="0 0 119.72 119.67"><defs><style>.cls-1{fill:url(#linear-gradient);}.cls-2{fill:#e2e6f3;}.cls-3{fill:#fff;}</style><linearGradient id="linear-gradient" x1="60" y1="67.71" x2="60" y2="116.75" gradientUnits="userSpaceOnUse"><stop offset="0" stop-color="#ff918f"/><stop offset="1" stop-color="#f05951"/></linearGradient></defs><g id="Layer_2" data-name="Layer 2"><g id="Layer_1-2" data-name="Layer 1"><path class="cls-1" d="M90.06,97.81a40.57,40.57,0,0,1-3.59,7.56c-.93,1.14-1.8,2.32-2.79,3.42a31.41,31.41,0,0,1-20.2,10.67c-.13,0-.24.13-.37.21H56.34a17.35,17.35,0,0,0-3.69-.86A31.61,31.61,0,0,1,34.1,106.18c-.2-.28-.45-.53-.67-.79a4.46,4.46,0,0,0-.28-.63A31.52,31.52,0,0,1,28.48,84.7,31.79,31.79,0,0,1,59.85,56.08l0,0a18.43,18.43,0,0,1,4.87.27A31.41,31.41,0,0,1,85,68.54C91.71,77.38,93.33,87.19,90.06,97.81Z"/><path class="cls-2" d="M119.61,50.22a6.65,6.65,0,0,1-4.54,5.45,6.88,6.88,0,0,1-6.81-1.09c-.87-.65-1.72-1.33-2.58-2-3.65-3-7.3-5.91-11-8.84Q79.93,31.92,65.13,20.11l-5.28-4.22V16c-.27-.05-.41.17-.58.31L49,24.54,21.33,46.62c-2.45,2-4.89,4-7.33,6-.74.56-1.49,1.1-2.22,1.68C7.43,57.71,2,56.12.23,50.85A2.06,2.06,0,0,0,0,50.48v-3c1-2.83,3.32-4.38,5.49-6.11L55.25,1.69A6.68,6.68,0,0,1,59.85,0a6.41,6.41,0,0,1,4.59,1.64L83.85,17.11c.25.19.51.36.76.53,2.84,2.29,5.67,4.59,8.52,6.86,4.15,3.31,8.33,6.59,12.5,9.88q5.58,4.5,11.17,9A6.93,6.93,0,0,1,119.61,50.22Z"/><path class="cls-3" d="M105.63,34.38c-4.17-3.29-8.35-6.57-12.5-9.88-2.86-2.27-5.68-4.57-8.52-6.86q0-3.39,0-6.77A3.55,3.55,0,0,1,88.44,7h13.43a3.52,3.52,0,0,1,3.78,3.79Q105.65,22.58,105.63,34.38Z"/><path class="cls-3" d="M105.68,52.59c0,6.62,0,13.24,0,19.86q0,14.53,0,29.08c0,2.51-1.37,3.88-3.89,3.88l-15.3,0a40.57,40.57,0,0,0,3.59-7.56C93.33,87.19,91.71,77.38,85,68.54A31.41,31.41,0,0,0,64.7,56.38a18.43,18.43,0,0,0-4.87-.27l0,0A31.79,31.79,0,0,0,28.48,84.7a31.52,31.52,0,0,0,4.67,20.06,4.46,4.46,0,0,1,.28.63c-5.25,0-10.51,0-15.76,0-2.25,0-3.64-1.53-3.64-3.93V54c0-.47,0-.94,0-1.4,2.44-2,4.88-4,7.33-6L49,24.54l10.32-8.23c.17-.14.31-.36.58-.31v-.11l5.28,4.22Q79.92,31.93,94.72,43.75C98.38,46.68,102,49.64,105.68,52.59Z"/><polygon class="cls-3" points="59.84 77.36 59.84 77.37 59.83 77.36 59.84 77.36"/><polygon class="cls-3" points="59.84 77.36 59.84 77.37 59.83 77.36 59.84 77.36"/><path class="cls-3" d="M70.3,96a9.84,9.84,0,0,1-5.78,8.18,1.84,1.84,0,0,0-1.21,2c0,1.37.31,2.78-.28,4.14a3.47,3.47,0,0,1-3.19,2.12h0a3.53,3.53,0,0,1-3.5-3.72.48.48,0,0,1,0-.12c.39-2.46-.16-4.31-2.75-5.4-1.62-.69-2.48-2.35-3.31-3.94a3.51,3.51,0,1,1,6.35-3,3.56,3.56,0,0,0,3.21,2.12,3.5,3.5,0,1,0,0-7A10.48,10.48,0,0,1,49.37,80a9.84,9.84,0,0,1,5.7-8.36,1.85,1.85,0,0,0,1.28-2.1,24,24,0,0,1,0-2.68,3.54,3.54,0,0,1,3.5-3.72h0a3.54,3.54,0,0,1,3.51,3.69,15.82,15.82,0,0,0,.06,3.71c.33,1.3,2,1.27,2.89,2.09a12.61,12.61,0,0,1,3,3.87,3.57,3.57,0,0,1-1.62,4.9,3.69,3.69,0,0,1-4.76-2,3.46,3.46,0,0,0-3.13-2h0a3.49,3.49,0,0,0-3.5,3.55,3.56,3.56,0,0,0,3.5,3.44h0A10.47,10.47,0,0,1,70.3,96Z"/></g></g></svg>